# xmcd CD database file
#
# Track frame offsets:
#	150
#	20833
#	35777
#	54269
#	76867
#	97835
#	113073
#	129822
#	149751
#	169740
#	187797
#	208657
#
# Disc length: 3114 seconds
#
# Revision: 1
# Processed by: cddbd v1.5.1PL0 Copyright (c) Steve Scherf et al.
# Submitted via: CDex 1.51
#
DISCID=9a0c280c
DTITLE=Byther Smith - Throw Away The Book
DYEAR=2004
DGENRE=Blues
TTITLE0=Running To New Orleans
TTITLE1=All For Business
TTITLE2=Things I Used To Do
TTITLE3=The Man Wants Me Dead
TTITLE4=Love Me Like I Love You
TTITLE5=I Didn't Get None
TTITLE6=Close To You Baby
TTITLE7=Never Stopped Loving You
TTITLE8=Put Your Arms Around Me
TTITLE9=Mean Old Daddy
TTITLE10=I Can't Understand You Baby
TTITLE11=I Don't Like To Travel
EXTD=YEAR: 2004
EXTT0=
EXTT1=
EXTT2=
EXTT3=
EXTT4=
EXTT5=
EXTT6=
EXTT7=
EXTT8=
EXTT9=
EXTT10=
EXTT11=
PLAYORDER=
